<?xml version="1.0" encoding="UTF-8"?>
<svg id="Layer_1" data-name="Layer 1" xmlns="http://www.w3.org/2000/svg" viewBox="0 0 1913.298 542.363" width="106" height="30">
  <defs>
    <style>
      .cls-1 {
        fill: #ff2f00;
      }
    </style>
  </defs>
  <g id="HubSpot_Logo" data-name="HubSpot Logo">
    <g>
      <polygon class="cls-1" points="207.213 306.956 66.717 306.956 66.717 454.956 0 454.956 0 89.777 66.717 89.777 66.717 242.77 207.213 242.77 207.213 89.777 273.915 89.777 273.915 454.956 207.213 454.956 207.213 306.956"/>
      <path class="cls-1" d="M487.389,336.922c0,30.414-24.775,55.161-55.183,55.161s-55.175-24.747-55.175-55.161v-156.409h-63.176v156.409c0,65.254,53.093,118.334,118.351,118.334s118.337-53.08,118.337-118.334v-156.409h-63.154v156.409Z"/>
      <path class="cls-1" d="M956.173,196.617c0-32.068,21.226-42.237,44.464-42.237,18.712,0,43.472,14.241,59.627,31.545l41.43-48.838c-20.703-27.972-62.642-47.311-97.008-47.311-68.741,0-118.268,40.193-118.268,106.84,0,123.616,151.117,84.432,151.117,153.636,0,21.342-20.714,40.182-44.459,40.182-37.41,0-49.545-18.315-66.721-37.649l-45.998,47.811c29.328,36.122,65.706,54.447,109.171,54.447,65.194,0,117.756-40.7,117.756-104.3,0-137.35-151.112-94.612-151.112-154.127Z"/>
      <path class="cls-1" d="M1891.044,396.619c-37.384,0-47.994-16.163-47.994-40.937v-109.66h58.105v-55.586h-58.105v-73.29l-64.167,28.803v223.382c0,57.114,39.404,85.926,93.46,85.926,8.086,0,19.216-.522,25.286-2.021l15.67-57.609c-7.073.488-15.156.992-22.255.992Z"/>
      <path class="cls-1" d="M728.198,182.343c-31.337,0-53.21,9.096-74.334,29.83v-120.215h-63.378v222.795c0,83.391,60.291,140.504,128.034,140.504,75.304,0,141.284-58.129,141.284-136.451,0-77.33-60.842-136.462-131.606-136.462ZM727.804,391.472c-39.703,0-71.884-32.183-71.884-71.883s32.181-71.883,71.884-71.883,71.882,32.184,71.882,71.883-32.184,71.883-71.882,71.883Z"/>
      <path class="cls-1" d="M1416.266,315.515c0-78.323-65.98-136.451-141.284-136.451-67.743,0-128.034,57.113-128.034,140.504v222.795h63.378v-120.215c21.124,20.734,42.997,29.83,74.334,29.83,70.764,0,131.606-59.132,131.606-136.462ZM1356.148,314.733c0,39.699-32.184,71.883-71.882,71.883s-71.884-32.184-71.884-71.883,32.181-71.883,71.884-71.883,71.882,32.183,71.882,71.883Z"/>
      <path class="cls-1" d="M1621.06,175.994v-63.662c16.616-7.85,28.259-24.661,28.259-44.172v-1.471c0-26.924-22.03-48.953-48.953-48.953h-1.47c-26.925,0-48.955,22.029-48.955,48.953v1.471c0,19.51,11.645,36.324,28.262,44.173v63.662c-24.741,3.822-47.348,14.026-66,29.043l-174.793-135.972c1.15-4.428,1.957-8.99,1.962-13.778C1339.412,24.793,1314.722.039,1284.225,0c-30.497-.038-55.251,24.652-55.29,55.149-.037,30.496,24.652,55.249,55.15,55.288,9.939.012,19.137-2.81,27.201-7.396l171.944,133.759c-14.625,22.072-23.188,48.512-23.188,76.973,0,29.799,9.412,57.359,25.322,80.031l-52.291,52.291c-4.134-1.24-8.425-2.108-12.965-2.108-25.059,0-45.375,20.316-45.375,45.375s20.317,45.375,45.375,45.375,45.375-20.316,45.375-45.375c0-4.538-.867-8.83-2.108-12.964l51.725-51.724c23.478,17.924,52.715,28.689,84.534,28.689,77.092,0,139.588-62.498,139.588-139.592,0-69.789-51.27-127.446-118.163-137.778ZM1599.635,385.339c-39.526,0-71.572-32.041-71.572-71.567s32.046-71.567,71.572-71.567,71.567,32.042,71.567,71.567-32.046,71.567-71.567,71.567Z"/>
    </g>
  </g>
</svg>
